<svg width="180" height="180" viewBox="0 0 180 180" fill="none" xmlns="http://www.w3.org/2000/svg" role="img" aria-labelledby="title desc">
  <title id="title">数字女友</title>
  <desc id="desc">数字女友安装图标</desc>
  <defs>
    <linearGradient id="bg" x1="8%" y1="0%" x2="92%" y2="100%">
      <stop offset="0%" stop-color="#1e3a8a" />
      <stop offset="100%" stop-color="#0f766e" />
    </linearGradient>
  </defs>
  <rect x="8" y="8" width="164" height="164" rx="40" fill="url(#bg)"/>
  <circle cx="90" cy="70" r="21" fill="#f8fafc"/>
  <path
    d="M56 116h68a24 24 0 0 1 24 24H32a24 24 0 0 1 24-24Z"
    fill="#f8fafc"
    opacity="0.92"
  />
  <path
    d="M88 62c-7 0-13-6-13-13s6-13 13-13 13 6 13 13-6 13-13 13Zm44-1 10-10-3-10-11 4-5-9-10 1 0 11-11-1-3 11 10 7-2 5c-5 16 2 34 15 42-7 2-14 6-18 12h-32c-4-6-11-10-18-12 13-8 19-26 14-42l-2-5 10-7-3-11-11 1 0-11-10-1-5 9-11-4-3 10 10 10 14 2c-4 15-1 36 16 42 0 3 0 6 0 9H80c0-3 0-6 0-9 16-6 20-26 16-42l13-2c-5 16-1 34 14 42 0 3 0 6 0 9H97c0-1 0-5 0-9 16-6 20-26 16-42l13-2ZM80 79c-7 0-12 5-12 12s5 12 12 12 12-5 12-12-5-12-12-12Z"
    fill="#f8fafc"
  />
  <path
    d="M90 96c-12 0-21-4-27-11 7 11 20 18 27 18s20-7 27-18c-6 7-15 11-27 11Z"
    fill="#0b1221"
    opacity="0.22"
  />
  <path
    d="M72 113h36"
    stroke="#e2e8f0"
    stroke-width="4"
    stroke-linecap="round"
  />
</svg>
